{
  "accessors": [
    {
      "bufferView": 2,
      "componentType": 5126,
      "count": 31682,
      "max": [
        0.919243574142456,
        0.919243574142456,
        0.3733781576156616
      ],
      "min": [
        -0.919243574142456,
        -0.919243574142456,
        -0.009999999776482582
      ],
      "type": "VEC3"
    },
    {
      "bufferView": 2,
      "byteOffset": 380184,
      "componentType": 5126,
      "count": 31682,
      "max": [
        1.0,
        1.0,
        1.0
      ],
      "min": [
        -1.0,
        -1.0,
        -1.0
      ],
      "type": "VEC3"
    },
    {
      "bufferView": 1,
      "componentType": 5126,
      "count": 31682,
      "max": [
        0.9998691082000732,
        0.6654831171035767
      ],
      "min": [
        0.0001308229984715581,
        0.00013080403732601553
      ],
      "type": "VEC2"
    },
    {
      "bufferView": 1,
      "byteOffset": 253456,
      "componentType": 5126,
      "count": 31682,
      "max": [
        0.9998691082000732,
        0.6654831171035767
      ],
      "min": [
        0.0001308229984715581,
        0.00013080403732601553
      ],
      "type": "VEC2"
    },
    {
      "bufferView": 0,
      "componentType": 5125,
      "count": 189312,
      "type": "SCALAR"
    }
  ],
  "asset": {
    "extras": {
      "author": "romanto0007 (https://sketchfab.com/romanto0007)",
      "license": "CC-BY-4.0 (http://creativecommons.org/licenses/by/4.0/)",
      "source": "https://sketchfab.com/3d-models/sombrero-gaucho-664feb6a987545b6a5028684d1095794",
      "title": "SOMBRERO GAUCHO"
    },
    "generator": "Sketchfab-16.0.0",
    "version": "2.0"
  },
  "bufferViews": [
    {
      "buffer": 0,
      "byteLength": 757248,
      "name": "floatBufferViews",
      "target": 34963
    },
    {
      "buffer": 0,
      "byteLength": 506912,
      "byteOffset": 757248,
      "byteStride": 8,
      "name": "floatBufferViews",
      "target": 34962
    },
    {
      "buffer": 0,
      "byteLength": 760368,
      "byteOffset": 1264160,
      "byteStride": 12,
      "name": "floatBufferViews",
      "target": 34962
    }
  ],
  "buffers": [
    {
      "byteLength": 2024528,
      "uri": "scene.bin"
    }
  ],
  "extensionsUsed": [
    "KHR_materials_specular"
  ],
  "images": [
    {
      "uri": "textures/CUERO_baseColor.jpeg"
    },
    {
      "uri": "textures/CUERO_metallicRoughness.png"
    }
  ],
  "materials": [
    {
      "doubleSided": true,
      "extensions": {
        "KHR_materials_specular": {
          "specularColorFactor": [
            1.0,
            1.0,
            1.0
          ],
          "specularFactor": 0.578386605783866
        }
      },
      "name": "CUERO",
      "occlusionTexture": {
        "index": 1
      },
      "pbrMetallicRoughness": {
        "baseColorFactor": [
          0.5905631659056316,
          0.5905631659056316,
          0.5905631659056316,
          1.0
        ],
        "baseColorTexture": {
          "index": 0
        },
        "metallicFactor": 0.6027397260273972,
        "metallicRoughnessTexture": {
          "index": 1
        },
        "roughnessFactor": 0.9984779299847792
      }
    }
  ],
  "meshes": [
    {
      "name": "Plano_CUERO_0",
      "primitives": [
        {
          "attributes": {
            "NORMAL": 1,
            "POSITION": 0,
            "TEXCOORD_0": 2,
            "TEXCOORD_1": 3
          },
          "indices": 4,
          "material": 0,
          "mode": 4
        }
      ]
    }
  ],
  "nodes": [
    {
      "children": [
        1
      ],
      "matrix": [
        1.0,
        0.0,
        0.0,
        0.0,
        0.0,
        2.220446049250313e-16,
        -1.0,
        0.0,
        0.0,
        1.0,
        2.220446049250313e-16,
        0.0,
        0.0,
        0.0,
        0.0,
        1.0
      ],
      "name": "Sketchfab_model"
    },
    {
      "children": [
        2
      ],
      "matrix": [
        0.009999999776482582,
        0.0,
        0.0,
        0.0,
        0.0,
        0.0,
        0.009999999776482582,
        0.0,
        0.0,
        -0.009999999776482582,
        0.0,
        0.0,
        0.0,
        0.0,
        0.0,
        1.0
      ],
      "name": "e76f290895ad4ed5924107d560829299.fbx"
    },
    {
      "children": [
        3
      ],
      "name": "RootNode"
    },
    {
      "children": [
        4
      ],
      "matrix": [
        283.9120788574219,
        0.0,
        0.0,
        0.0,
        -0.0,
        -4.625514877499839e-05,
        -283.9120788574181,
        0.0,
        0.0,
        283.9120788574181,
        -4.625514877499839e-05,
        0.0,
        -117.43505096435547,
        -30.743717193603516,
        -12.43411636352539,
        1.0
      ],
      "name": "Plano"
    },
    {
      "mesh": 0,
      "name": "Plano_CUERO_0"
    }
  ],
  "samplers": [
    {
      "magFilter": 9729,
      "minFilter": 9987,
      "wrapS": 10497,
      "wrapT": 10497
    }
  ],
  "scene": 0,
  "scenes": [
    {
      "name": "Sketchfab_Scene",
      "nodes": [
        0
      ]
    }
  ],
  "textures": [
    {
      "sampler": 0,
      "source": 0
    },
    {
      "sampler": 0,
      "source": 1
    }
  ]
}
