{
  "accessors": [
    {
      "bufferView": 2,
      "componentType": 5126,
      "count": 642,
      "max": [
        253.90786743164063,
        90.01103973388672,
        317.0551452636719
      ],
      "min": [
        -254.8070526123047,
        31.931110382080078,
        -330.1747131347656
      ],
      "type": "VEC3"
    },
    {
      "bufferView": 2,
      "byteOffset": 7704,
      "componentType": 5126,
      "count": 642,
      "max": [
        0.9991300106048584,
        0.9813316464424133,
        1.0
      ],
      "min": [
        -0.9991300106048584,
        -1.0,
        -1.0
      ],
      "type": "VEC3"
    },
    {
      "bufferView": 1,
      "componentType": 5126,
      "count": 642,
      "max": [
        0.9149003028869629,
        0.6549450755119324
      ],
      "min": [
        0.23840820789337158,
        0.08321395516395569
      ],
      "type": "VEC2"
    },
    {
      "bufferView": 0,
      "componentType": 5125,
      "count": 1542,
      "type": "SCALAR"
    },
    {
      "bufferView": 2,
      "byteOffset": 15408,
      "componentType": 5126,
      "count": 1813,
      "max": [
        90.3523941040039,
        85.61547088623047,
        203.38453674316406
      ],
      "min": [
        -91.25157165527344,
        5.481882572174072,
        -330.69134521484375
      ],
      "type": "VEC3"
    },
    {
      "bufferView": 2,
      "byteOffset": 37164,
      "componentType": 5126,
      "count": 1813,
      "max": [
        0.9999572038650513,
        0.9999998211860657,
        1.0
      ],
      "min": [
        -0.9999572038650513,
        -0.999768078327179,
        -1.0
      ],
      "type": "VEC3"
    },
    {
      "bufferView": 1,
      "byteOffset": 5136,
      "componentType": 5126,
      "count": 1813,
      "max": [
        0.9151387214660645,
        0.9776626229286194
      ],
      "min": [
        0.03889027237892151,
        0.08786670118570328
      ],
      "type": "VEC2"
    },
    {
      "bufferView": 0,
      "byteOffset": 6168,
      "componentType": 5125,
      "count": 7200,
      "type": "SCALAR"
    },
    {
      "bufferView": 2,
      "byteOffset": 58920,
      "componentType": 5126,
      "count": 3984,
      "max": [
        254.25469970703125,
        193.0389862060547,
        317.0551452636719
      ],
      "min": [
        -255.1538848876953,
        14.357168197631836,
        -330.69134521484375
      ],
      "type": "VEC3"
    },
    {
      "bufferView": 2,
      "byteOffset": 106728,
      "componentType": 5126,
      "count": 3984,
      "max": [
        0.9999875426292419,
        0.9996692538261414,
        1.0
      ],
      "min": [
        -0.9999875426292419,
        -0.9999857544898987,
        -1.0
      ],
      "type": "VEC3"
    },
    {
      "bufferView": 1,
      "byteOffset": 19640,
      "componentType": 5126,
      "count": 3984,
      "max": [
        0.9432368278503418,
        0.9193079471588135
      ],
      "min": [
        0.15916591882705688,
        0.06635916233062744
      ],
      "type": "VEC2"
    },
    {
      "bufferView": 0,
      "byteOffset": 34968,
      "componentType": 5125,
      "count": 13674,
      "type": "SCALAR"
    },
    {
      "bufferView": 2,
      "byteOffset": 154536,
      "componentType": 5126,
      "count": 252,
      "max": [
        34.650787353515625,
        59.623233795166016,
        174.45880126953125
      ],
      "min": [
        -35.54996871948242,
        46.581172943115234,
        -306.75390625
      ],
      "type": "VEC3"
    },
    {
      "bufferView": 2,
      "byteOffset": 157560,
      "componentType": 5126,
      "count": 252,
      "max": [
        0.9999875426292419,
        0.8466266989707947,
        0.10243601351976395
      ],
      "min": [
        -0.9999875426292419,
        -0.05737391114234924,
        -0.5908418297767639
      ],
      "type": "VEC3"
    },
    {
      "bufferView": 1,
      "byteOffset": 51512,
      "componentType": 5126,
      "count": 252,
      "max": [
        0.9049856662750244,
        0.33238840103149414
      ],
      "min": [
        0.3714113235473633,
        0.1038932353258133
      ],
      "type": "VEC2"
    },
    {
      "bufferView": 0,
      "byteOffset": 89664,
      "componentType": 5125,
      "count": 396,
      "type": "SCALAR"
    },
    {
      "bufferView": 2,
      "byteOffset": 160584,
      "componentType": 5126,
      "count": 96,
      "max": [
        90.32537841796875,
        30.7651424407959,
        -57.695106506347656
      ],
      "min": [
        -91.22455596923828,
        6.085488796234131,
        -61.720703125
      ],
      "type": "VEC3"
    },
    {
      "bufferView": 2,
      "byteOffset": 161736,
      "componentType": 5126,
      "count": 96,
      "max": [
        0.8097565770149231,
        0.8860160708427429,
        -0.4512794613838196
      ],
      "min": [
        -0.8097562193870544,
        -0.8901110887527466,
        -0.6869603395462036
      ],
      "type": "VEC3"
    },
    {
      "bufferView": 1,
      "byteOffset": 53528,
      "componentType": 5126,
      "count": 96,
      "max": [
        0.28580808639526367,
        0.9091394543647766
      ],
      "min": [
        0.03895968198776245,
        0.6983745098114014
      ],
      "type": "VEC2"
    },
    {
      "bufferView": 0,
      "byteOffset": 91248,
      "componentType": 5125,
      "count": 240,
      "type": "SCALAR"
    }
  ],
  "asset": {
    "extras": {
      "author": "gabeat (https://sketchfab.com/gabeat)",
      "license": "CC-BY-NC-4.0 (http://creativecommons.org/licenses/by-nc/4.0/)",
      "source": "https://sketchfab.com/3d-models/avion-efee95b1597f4f319f1179f16166dcbd",
      "title": "Avion"
    },
    "generator": "Sketchfab-12.68.0",
    "version": "2.0"
  },
  "bufferViews": [
    {
      "buffer": 0,
      "byteLength": 92208,
      "name": "floatBufferViews",
      "target": 34963
    },
    {
      "buffer": 0,
      "byteLength": 54296,
      "byteOffset": 92208,
      "byteStride": 8,
      "name": "floatBufferViews",
      "target": 34962
    },
    {
      "buffer": 0,
      "byteLength": 162888,
      "byteOffset": 146504,
      "byteStride": 12,
      "name": "floatBufferViews",
      "target": 34962
    }
  ],
  "buffers": [
    {
      "byteLength": 309392,
      "uri": "scene.bin"
    }
  ],
  "materials": [
    {
      "doubleSided": true,
      "name": "azul_oscuro",
      "pbrMetallicRoughness": {
        "baseColorFactor": [
          0.000417644,
          0.0393812,
          0.203252,
          1.0
        ],
        "metallicFactor": 0.0,
        "roughnessFactor": 0.6
      }
    },
    {
      "doubleSided": true,
      "name": "blanco",
      "pbrMetallicRoughness": {
        "metallicFactor": 0.0,
        "roughnessFactor": 0.6
      }
    },
    {
      "doubleSided": true,
      "name": "azul_inferior",
      "pbrMetallicRoughness": {
        "baseColorFactor": [
          0.00121381,
          0.114436,
          0.59062,
          1.0
        ],
        "metallicFactor": 0.0,
        "roughnessFactor": 0.6
      }
    },
    {
      "doubleSided": true,
      "name": "cristal",
      "pbrMetallicRoughness": {
        "baseColorFactor": [
          0.317073,
          0.317073,
          0.317073,
          1.0
        ],
        "metallicFactor": 0.0,
        "roughnessFactor": 0.9207483816249483
      }
    },
    {
      "doubleSided": true,
      "name": "negro",
      "pbrMetallicRoughness": {
        "baseColorFactor": [
          0.0,
          0.0,
          0.0,
          1.0
        ],
        "metallicFactor": 0.0,
        "roughnessFactor": 0.6
      }
    }
  ],
  "meshes": [
    {
      "name": "avion_azul_oscuro_0",
      "primitives": [
        {
          "attributes": {
            "NORMAL": 1,
            "POSITION": 0,
            "TEXCOORD_0": 2
          },
          "indices": 3,
          "material": 0,
          "mode": 4
        }
      ]
    },
    {
      "name": "avion_blanco_0",
      "primitives": [
        {
          "attributes": {
            "NORMAL": 5,
            "POSITION": 4,
            "TEXCOORD_0": 6
          },
          "indices": 7,
          "material": 1,
          "mode": 4
        }
      ]
    },
    {
      "name": "avion_azul_inferior_0",
      "primitives": [
        {
          "attributes": {
            "NORMAL": 9,
            "POSITION": 8,
            "TEXCOORD_0": 10
          },
          "indices": 11,
          "material": 2,
          "mode": 4
        }
      ]
    },
    {
      "name": "avion_cristal_0",
      "primitives": [
        {
          "attributes": {
            "NORMAL": 13,
            "POSITION": 12,
            "TEXCOORD_0": 14
          },
          "indices": 15,
          "material": 3,
          "mode": 4
        }
      ]
    },
    {
      "name": "avion_negro_0",
      "primitives": [
        {
          "attributes": {
            "NORMAL": 17,
            "POSITION": 16,
            "TEXCOORD_0": 18
          },
          "indices": 19,
          "material": 4,
          "mode": 4
        }
      ]
    }
  ],
  "nodes": [
    {
      "children": [
        1
      ],
      "matrix": [
        1.0,
        0.0,
        0.0,
        0.0,
        0.0,
        2.220446049250313e-16,
        -1.0,
        0.0,
        0.0,
        1.0,
        2.220446049250313e-16,
        0.0,
        0.0,
        0.0,
        0.0,
        1.0
      ],
      "name": "Sketchfab_model"
    },
    {
      "children": [
        2
      ],
      "matrix": [
        1.0,
        0.0,
        0.0,
        0.0,
        0.0,
        0.0,
        1.0,
        0.0,
        0.0,
        -1.0,
        0.0,
        0.0,
        0.0,
        0.0,
        0.0,
        1.0
      ],
      "name": "e34edbcafdb84f33ab251acf3edc456a.fbx"
    },
    {
      "children": [
        3
      ],
      "name": "RootNode"
    },
    {
      "children": [
        4
      ],
      "name": "grupo_avion"
    },
    {
      "children": [
        5,
        6,
        7,
        8,
        9
      ],
      "name": "avion"
    },
    {
      "mesh": 0,
      "name": "avion_azul_oscuro_0"
    },
    {
      "mesh": 1,
      "name": "avion_blanco_0"
    },
    {
      "mesh": 2,
      "name": "avion_azul_inferior_0"
    },
    {
      "mesh": 3,
      "name": "avion_cristal_0"
    },
    {
      "mesh": 4,
      "name": "avion_negro_0"
    }
  ],
  "scene": 0,
  "scenes": [
    {
      "name": "Sketchfab_Scene",
      "nodes": [
        0
      ]
    }
  ]
}
