{
  "accessors": [
    {
      "bufferView": 2,
      "componentType": 5126,
      "count": 233,
      "max": [
        0.36324000358581543,
        0.48420900106430054,
        0.25133100152015686
      ],
      "min": [
        -0.36997100710868835,
        -0.5071550011634827,
        -0.25033900141716003
      ],
      "type": "VEC3"
    },
    {
      "bufferView": 2,
      "byteOffset": 2796,
      "componentType": 5126,
      "count": 233,
      "max": [
        0.9924905300140381,
        0.9996611475944519,
        0.9888720512390137
      ],
      "min": [
        -0.9934058785438538,
        -0.9999997615814209,
        -0.9921982288360596
      ],
      "type": "VEC3"
    },
    {
      "bufferView": 3,
      "componentType": 5126,
      "count": 233,
      "max": [
        0.9304589033126831,
        0.9898301362991333,
        0.9995572566986084,
        1.0
      ],
      "min": [
        -0.999064028263092,
        -0.9996944665908813,
        -0.978331983089447,
        1.0
      ],
      "type": "VEC4"
    },
    {
      "bufferView": 1,
      "componentType": 5126,
      "count": 233,
      "max": [
        0.9911999702453613,
        0.9882000088691711
      ],
      "min": [
        0.011300000362098217,
        0.007799999788403511
      ],
      "type": "VEC2"
    },
    {
      "bufferView": 0,
      "componentType": 5125,
      "count": 948,
      "type": "SCALAR"
    }
  ],
  "asset": {
    "extras": {
      "author": "Grasbock (https://sketchfab.com/grasbock)",
      "license": "CC-BY-4.0 (http://creativecommons.org/licenses/by/4.0/)",
      "source": "https://sketchfab.com/3d-models/cheese-6aca23ca300b474888ad72b00be9595d",
      "title": "Cheese"
    },
    "generator": "Sketchfab-14.49.0",
    "version": "2.0"
  },
  "bufferViews": [
    {
      "buffer": 0,
      "byteLength": 3792,
      "name": "floatBufferViews",
      "target": 34963
    },
    {
      "buffer": 0,
      "byteLength": 1864,
      "byteOffset": 3792,
      "byteStride": 8,
      "name": "floatBufferViews",
      "target": 34962
    },
    {
      "buffer": 0,
      "byteLength": 5592,
      "byteOffset": 5656,
      "byteStride": 12,
      "name": "floatBufferViews",
      "target": 34962
    },
    {
      "buffer": 0,
      "byteLength": 3728,
      "byteOffset": 11248,
      "byteStride": 16,
      "name": "floatBufferViews",
      "target": 34962
    }
  ],
  "buffers": [
    {
      "byteLength": 14976,
      "uri": "gltf.bin"
    }
  ],
  "images": [
    {
      "uri": "textures/material_0_baseColor.png"
    },
    {
      "uri": "textures/material_0_normal.png"
    }
  ],
  "materials": [
    {
      "doubleSided": true,
      "name": "material_0",
      "normalTexture": {
        "index": 1
      },
      "pbrMetallicRoughness": {
        "baseColorTexture": {
          "index": 0
        },
        "metallicFactor": 0.0,
        "roughnessFactor": 0.6
      }
    }
  ],
  "meshes": [
    {
      "name": "Object_0",
      "primitives": [
        {
          "attributes": {
            "NORMAL": 1,
            "POSITION": 0,
            "TANGENT": 2,
            "TEXCOORD_0": 3
          },
          "indices": 4,
          "material": 0,
          "mode": 4
        }
      ]
    }
  ],
  "nodes": [
    {
      "children": [
        1
      ],
      "matrix": [
        1.0,
        0.0,
        0.0,
        0.0,
        0.0,
        2.220446049250313e-16,
        -1.0,
        0.0,
        0.0,
        1.0,
        2.220446049250313e-16,
        0.0,
        0.0,
        0.0,
        0.0,
        1.0
      ],
      "name": "Sketchfab_model"
    },
    {
      "children": [
        2
      ],
      "name": "9c34eb8ad7764f5f990f548b19fb64e1.obj.cleaner.materialmerger.gles"
    },
    {
      "mesh": 0,
      "name": "Object_2"
    }
  ],
  "samplers": [
    {
      "magFilter": 9729,
      "minFilter": 9987,
      "wrapS": 10497,
      "wrapT": 10497
    }
  ],
  "scene": 0,
  "scenes": [
    {
      "name": "Sketchfab_Scene",
      "nodes": [
        0
      ]
    }
  ],
  "textures": [
    {
      "sampler": 0,
      "source": 0
    },
    {
      "sampler": 0,
      "source": 1
    }
  ]
}
