{
  "accessors": [
    {
      "bufferView": 1,
      "componentType": 5126,
      "count": 1765,
      "max": [
        1.9635608196258545,
        1.6496222019195557,
        0.9393858909606934
      ],
      "min": [
        -1.9785865545272827,
        -1.007421612739563,
        -0.7573899030685425
      ],
      "type": "VEC3"
    },
    {
      "bufferView": 1,
      "byteOffset": 21180,
      "componentType": 5126,
      "count": 1765,
      "max": [
        0.9986697435379028,
        1.0,
        0.9999788403511047
      ],
      "min": [
        -0.9996429085731506,
        -0.9992202520370483,
        -0.9999983906745911
      ],
      "type": "VEC3"
    },
    {
      "bufferView": 0,
      "componentType": 5125,
      "count": 8430,
      "type": "SCALAR"
    }
  ],
  "asset": {
    "extras": {
      "author": "cicinha (https://sketchfab.com/cicinha)",
      "license": "CC-BY-4.0 (http://creativecommons.org/licenses/by/4.0/)",
      "source": "https://sketchfab.com/3d-models/croissant-45ff3bd22e4e4dc98a6a177f5d18c047",
      "title": "Croissant"
    },
    "generator": "Sketchfab-15.27.0",
    "version": "2.0"
  },
  "bufferViews": [
    {
      "buffer": 0,
      "byteLength": 33720,
      "name": "floatBufferViews",
      "target": 34963
    },
    {
      "buffer": 0,
      "byteLength": 42360,
      "byteOffset": 33720,
      "byteStride": 12,
      "name": "floatBufferViews",
      "target": 34962
    }
  ],
  "buffers": [
    {
      "byteLength": 76080,
      "uri": "scene.bin"
    }
  ],
  "extensionsUsed": [
    "KHR_materials_specular"
  ],
  "materials": [
    {
      "doubleSided": true,
      "extensions": {
        "KHR_materials_specular": {
          "specularColorFactor": [
            1.0,
            1.0,
            1.0
          ],
          "specularFactor": 0.0
        }
      },
      "name": "Scene_-_Root",
      "pbrMetallicRoughness": {
        "baseColorFactor": [
          0.6587264102953884,
          0.39495783033183496,
          0.19434175107114487,
          1.0
        ],
        "metallicFactor": 0.0
      }
    }
  ],
  "meshes": [
    {
      "name": "Object_0",
      "primitives": [
        {
          "attributes": {
            "NORMAL": 1,
            "POSITION": 0
          },
          "indices": 2,
          "material": 0,
          "mode": 4
        }
      ]
    }
  ],
  "nodes": [
    {
      "children": [
        1
      ],
      "matrix": [
        1.0,
        0.0,
        0.0,
        0.0,
        0.0,
        2.220446049250313e-16,
        -1.0,
        0.0,
        0.0,
        1.0,
        2.220446049250313e-16,
        0.0,
        0.0,
        0.0,
        0.0,
        1.0
      ],
      "name": "Sketchfab_model"
    },
    {
      "children": [
        2
      ],
      "name": "root"
    },
    {
      "children": [
        3
      ],
      "matrix": [
        1.0,
        0.0,
        0.0,
        0.0,
        0.0,
        2.220446049250313e-16,
        1.0,
        0.0,
        0.0,
        -1.0,
        2.220446049250313e-16,
        0.0,
        0.0,
        0.0,
        0.0,
        1.0
      ],
      "name": "GLTF_SceneRootNode"
    },
    {
      "children": [
        4
      ],
      "matrix": [
        0.8890057245814879,
        -0.0005867240818024505,
        -0.03011950396765616,
        0.0,
        -0.029910873015478213,
        0.24592755293009103,
        -0.8876384214156565,
        0.0,
        0.010708865653470583,
        1.067124778352817,
        0.29529487183828435,
        0.0,
        -0.06469544768333435,
        0.2303979992866516,
        0.09549486637115479,
        1.0
      ],
      "name": "Croissant_2"
    },
    {
      "mesh": 0,
      "name": "Object_4"
    }
  ],
  "scene": 0,
  "scenes": [
    {
      "name": "Sketchfab_Scene",
      "nodes": [
        0
      ]
    }
  ]
}
