{
  "accessors": [
    {
      "bufferView": 2,
      "componentType": 5126,
      "count": 418,
      "max": [
        1.9834001064300537,
        -0.7486786842346191,
        1.1936235427856445
      ],
      "min": [
        -1.9834001064300537,
        -1.2995615005493164,
        -1.1936235427856445
      ],
      "type": "VEC3"
    },
    {
      "bufferView": 2,
      "byteOffset": 5016,
      "componentType": 5126,
      "count": 418,
      "max": [
        1.0,
        1.0,
        1.0
      ],
      "min": [
        -1.0,
        -1.0,
        -1.0
      ],
      "type": "VEC3"
    },
    {
      "bufferView": 1,
      "componentType": 5126,
      "count": 418,
      "max": [
        0.6178722977638245,
        0.991133451461792
      ],
      "min": [
        0.10253316164016724,
        0.5376119017601013
      ],
      "type": "VEC2"
    },
    {
      "bufferView": 0,
      "componentType": 5125,
      "count": 720,
      "type": "SCALAR"
    },
    {
      "bufferView": 2,
      "byteOffset": 10032,
      "componentType": 5126,
      "count": 90,
      "max": [
        2.1776955127716064,
        1.1227545738220215,
        1.8997042179107666
      ],
      "min": [
        -2.4524738788604736,
        -1.1233028173446655,
        -3.313518524169922
      ],
      "type": "VEC3"
    },
    {
      "bufferView": 2,
      "byteOffset": 11112,
      "componentType": 5126,
      "count": 90,
      "max": [
        1.0,
        0.5416754484176636,
        1.0
      ],
      "min": [
        -1.0,
        -0.541675865650177,
        -0.7071065306663513
      ],
      "type": "VEC3"
    },
    {
      "bufferView": 1,
      "byteOffset": 3344,
      "componentType": 5126,
      "count": 90,
      "max": [
        0.9541956186294556,
        0.8876810073852539
      ],
      "min": [
        0.05173695087432861,
        0.02873985469341278
      ],
      "type": "VEC2"
    },
    {
      "bufferView": 0,
      "byteOffset": 2880,
      "componentType": 5125,
      "count": 144,
      "type": "SCALAR"
    },
    {
      "bufferView": 2,
      "byteOffset": 12192,
      "componentType": 5126,
      "count": 428,
      "max": [
        2.2667348384857178,
        -0.15367865562438965,
        1.9776564836502075
      ],
      "min": [
        -2.2667348384857178,
        -0.7045614719390869,
        -1.9776564836502075
      ],
      "type": "VEC3"
    },
    {
      "bufferView": 2,
      "byteOffset": 17328,
      "componentType": 5126,
      "count": 428,
      "max": [
        0.9914447069168091,
        1.0,
        0.9914447069168091
      ],
      "min": [
        -0.9914447069168091,
        -1.0,
        -0.9914448261260986
      ],
      "type": "VEC3"
    },
    {
      "bufferView": 1,
      "byteOffset": 4064,
      "componentType": 5126,
      "count": 428,
      "max": [
        0.6153531074523926,
        0.506113588809967
      ],
      "min": [
        0.10001397132873535,
        0.07204464077949524
      ],
      "type": "VEC2"
    },
    {
      "bufferView": 0,
      "byteOffset": 3456,
      "componentType": 5125,
      "count": 720,
      "type": "SCALAR"
    },
    {
      "bufferView": 2,
      "byteOffset": 22464,
      "componentType": 5126,
      "count": 430,
      "max": [
        1.2952244281768799,
        1.3018848896026611,
        0.7541930675506592
      ],
      "min": [
        -2.5651051998138428,
        -1.3018848896026611,
        -3.457108736038208
      ],
      "type": "VEC3"
    },
    {
      "bufferView": 2,
      "byteOffset": 27624,
      "componentType": 5126,
      "count": 430,
      "max": [
        0.9895943403244019,
        0.9838924407958984,
        0.969760537147522
      ],
      "min": [
        -0.9895943999290466,
        -0.9838305115699768,
        -0.9697648882865906
      ],
      "type": "VEC3"
    },
    {
      "bufferView": 1,
      "byteOffset": 7488,
      "componentType": 5126,
      "count": 430,
      "max": [
        0.9430297613143921,
        0.6366304159164429
      ],
      "min": [
        0.12092186510562897,
        0.1212913990020752
      ],
      "type": "VEC2"
    },
    {
      "bufferView": 0,
      "byteOffset": 6336,
      "componentType": 5125,
      "count": 720,
      "type": "SCALAR"
    }
  ],
  "asset": {
    "extras": {
      "author": "EmpDevTeam (https://sketchfab.com/EmpDevTeam)",
      "license": "CC-BY-4.0 (http://creativecommons.org/licenses/by/4.0/)",
      "source": "https://sketchfab.com/3d-models/pila-de-libros-low-semana8-7e4c6314667841e4af466087644c50c2",
      "title": "Pila de libros Low_Semana8"
    },
    "generator": "Sketchfab-12.68.0",
    "version": "2.0"
  },
  "bufferViews": [
    {
      "buffer": 0,
      "byteLength": 9216,
      "name": "floatBufferViews",
      "target": 34963
    },
    {
      "buffer": 0,
      "byteLength": 10928,
      "byteOffset": 9216,
      "byteStride": 8,
      "name": "floatBufferViews",
      "target": 34962
    },
    {
      "buffer": 0,
      "byteLength": 32784,
      "byteOffset": 20144,
      "byteStride": 12,
      "name": "floatBufferViews",
      "target": 34962
    }
  ],
  "buffers": [
    {
      "byteLength": 52928,
      "uri": "scene.bin"
    }
  ],
  "materials": [
    {
      "doubleSided": true,
      "name": "lambert5",
      "pbrMetallicRoughness": {
        "baseColorFactor": [
          0.255535,
          0.493,
          0.230724,
          1.0
        ],
        "metallicFactor": 0.0,
        "roughnessFactor": 0.6
      }
    },
    {
      "doubleSided": true,
      "name": "lambert4",
      "pbrMetallicRoughness": {
        "baseColorFactor": [
          0.718,
          0.718,
          0.417158,
          1.0
        ],
        "metallicFactor": 0.0,
        "roughnessFactor": 0.6
      }
    },
    {
      "doubleSided": true,
      "name": "lambert3",
      "pbrMetallicRoughness": {
        "baseColorFactor": [
          0.12449,
          0.313449,
          0.422,
          1.0
        ],
        "metallicFactor": 0.0,
        "roughnessFactor": 0.6
      }
    },
    {
      "doubleSided": true,
      "name": "lambert2",
      "pbrMetallicRoughness": {
        "baseColorFactor": [
          0.533,
          0.1225,
          0.1478,
          1.0
        ],
        "metallicFactor": 0.0,
        "roughnessFactor": 0.6
      }
    }
  ],
  "meshes": [
    {
      "name": "PileOfBooks_Low_lambert5_0",
      "primitives": [
        {
          "attributes": {
            "NORMAL": 1,
            "POSITION": 0,
            "TEXCOORD_0": 2
          },
          "indices": 3,
          "material": 0,
          "mode": 4
        }
      ]
    },
    {
      "name": "PileOfBooks_Low_lambert4_0",
      "primitives": [
        {
          "attributes": {
            "NORMAL": 5,
            "POSITION": 4,
            "TEXCOORD_0": 6
          },
          "indices": 7,
          "material": 1,
          "mode": 4
        }
      ]
    },
    {
      "name": "PileOfBooks_Low_lambert3_0",
      "primitives": [
        {
          "attributes": {
            "NORMAL": 9,
            "POSITION": 8,
            "TEXCOORD_0": 10
          },
          "indices": 11,
          "material": 2,
          "mode": 4
        }
      ]
    },
    {
      "name": "PileOfBooks_Low_lambert2_0",
      "primitives": [
        {
          "attributes": {
            "NORMAL": 13,
            "POSITION": 12,
            "TEXCOORD_0": 14
          },
          "indices": 15,
          "material": 3,
          "mode": 4
        }
      ]
    }
  ],
  "nodes": [
    {
      "children": [
        1
      ],
      "matrix": [
        1.0,
        0.0,
        0.0,
        0.0,
        0.0,
        2.220446049250313e-16,
        -1.0,
        0.0,
        0.0,
        1.0,
        2.220446049250313e-16,
        0.0,
        0.0,
        0.0,
        0.0,
        1.0
      ],
      "name": "Sketchfab_model"
    },
    {
      "children": [
        2
      ],
      "matrix": [
        1.0,
        0.0,
        0.0,
        0.0,
        0.0,
        0.0,
        1.0,
        0.0,
        0.0,
        -1.0,
        0.0,
        0.0,
        0.0,
        0.0,
        0.0,
        1.0
      ],
      "name": "15b30af59f984a9a8c432206cdbb4db3.fbx"
    },
    {
      "children": [
        3
      ],
      "name": "RootNode"
    },
    {
      "children": [
        4,
        5,
        6,
        7
      ],
      "name": "PileOfBooks_Low"
    },
    {
      "mesh": 0,
      "name": "PileOfBooks_Low_lambert5_0"
    },
    {
      "mesh": 1,
      "name": "PileOfBooks_Low_lambert4_0"
    },
    {
      "mesh": 2,
      "name": "PileOfBooks_Low_lambert3_0"
    },
    {
      "mesh": 3,
      "name": "PileOfBooks_Low_lambert2_0"
    }
  ],
  "scene": 0,
  "scenes": [
    {
      "name": "Sketchfab_Scene",
      "nodes": [
        0
      ]
    }
  ]
}
