{
  "accessors": [
    {
      "bufferView": 2,
      "componentType": 5126,
      "count": 5652,
      "max": [
        4.287324905395508,
        3.8735580444335938,
        2.1212339401245117
      ],
      "min": [
        -4.28263521194458,
        -2.5874850749969482,
        -3.3501551151275635
      ],
      "type": "VEC3"
    },
    {
      "bufferView": 2,
      "byteOffset": 67824,
      "componentType": 5126,
      "count": 5652,
      "max": [
        0.9996969103813171,
        0.9982444643974304,
        0.9998464584350586
      ],
      "min": [
        -0.9993578791618347,
        -0.9998546242713928,
        -0.9984957575798035
      ],
      "type": "VEC3"
    },
    {
      "bufferView": 3,
      "componentType": 5126,
      "count": 5652,
      "max": [
        0.998412013053894,
        0.9992592930793762,
        0.9979801774024963,
        1.0
      ],
      "min": [
        -0.9999324083328247,
        -0.9999350309371948,
        -0.9944891333580017,
        1.0
      ],
      "type": "VEC4"
    },
    {
      "bufferView": 1,
      "componentType": 5126,
      "count": 5652,
      "max": [
        0.9959999918937683,
        0.9902420043945313
      ],
      "min": [
        0.004000000189989805,
        0.004000000189989805
      ],
      "type": "VEC2"
    },
    {
      "bufferView": 0,
      "componentType": 5125,
      "count": 30582,
      "type": "SCALAR"
    }
  ],
  "asset": {
    "extras": {
      "author": "Lucie Castiaux (https://sketchfab.com/kaseus)",
      "license": "CC-BY-4.0 (http://creativecommons.org/licenses/by/4.0/)",
      "source": "https://sketchfab.com/3d-models/diablo-skull-fanart-449e3001dd25435d9621fa9ce8f8c395",
      "title": "Diablo skull fanart"
    },
    "generator": "Sketchfab-12.67.0",
    "version": "2.0"
  },
  "bufferViews": [
    {
      "buffer": 0,
      "byteLength": 122328,
      "name": "floatBufferViews",
      "target": 34963
    },
    {
      "buffer": 0,
      "byteLength": 45216,
      "byteOffset": 122328,
      "byteStride": 8,
      "name": "floatBufferViews",
      "target": 34962
    },
    {
      "buffer": 0,
      "byteLength": 135648,
      "byteOffset": 167544,
      "byteStride": 12,
      "name": "floatBufferViews",
      "target": 34962
    },
    {
      "buffer": 0,
      "byteLength": 90432,
      "byteOffset": 303192,
      "byteStride": 16,
      "name": "floatBufferViews",
      "target": 34962
    }
  ],
  "buffers": [
    {
      "byteLength": 393624,
      "uri": "scene.bin"
    }
  ],
  "images": [
    {
      "uri": "textures/Standardmaterial_baseColor.jpeg"
    },
    {
      "uri": "textures/Standardmaterial_metallicRoughness.png"
    },
    {
      "uri": "textures/Standardmaterial_emissive.jpeg"
    },
    {
      "uri": "textures/Standardmaterial_normal.png"
    }
  ],
  "materials": [
    {
      "doubleSided": true,
      "emissiveFactor": [
        1.0,
        1.0,
        1.0
      ],
      "emissiveTexture": {
        "index": 2
      },
      "name": "Standardmaterial",
      "normalTexture": {
        "index": 3
      },
      "occlusionTexture": {
        "index": 1
      },
      "pbrMetallicRoughness": {
        "baseColorTexture": {
          "index": 0
        },
        "metallicRoughnessTexture": {
          "index": 1
        }
      }
    }
  ],
  "meshes": [
    {
      "name": "defaultMaterial",
      "primitives": [
        {
          "attributes": {
            "NORMAL": 1,
            "POSITION": 0,
            "TANGENT": 2,
            "TEXCOORD_0": 3
          },
          "indices": 4,
          "material": 0,
          "mode": 4
        }
      ]
    }
  ],
  "nodes": [
    {
      "children": [
        1
      ],
      "matrix": [
        1.0,
        0.0,
        0.0,
        0.0,
        0.0,
        2.220446049250313e-16,
        -1.0,
        0.0,
        0.0,
        1.0,
        2.220446049250313e-16,
        0.0,
        0.0,
        0.0,
        0.0,
        1.0
      ],
      "name": "Sketchfab_model"
    },
    {
      "children": [
        2
      ],
      "matrix": [
        1.0,
        0.0,
        0.0,
        0.0,
        0.0,
        -4.371139006309477e-08,
        0.999999999999999,
        0.0,
        0.0,
        -0.999999999999999,
        -4.371139006309477e-08,
        0.0,
        0.0,
        0.0,
        0.0,
        1.0
      ],
      "name": "Collada visual scene group"
    },
    {
      "children": [
        3
      ],
      "matrix": [
        0.393701,
        0.0,
        0.0,
        0.0,
        0.0,
        0.393701,
        0.0,
        0.0,
        0.0,
        0.0,
        0.393701,
        0.0,
        0.0,
        0.0,
        0.0,
        1.0
      ],
      "name": "SkullDiablo_Retopo"
    },
    {
      "mesh": 0,
      "name": "defaultMaterial"
    }
  ],
  "samplers": [
    {
      "magFilter": 9729,
      "minFilter": 9987,
      "wrapS": 10497,
      "wrapT": 10497
    }
  ],
  "scene": 0,
  "scenes": [
    {
      "name": "Sketchfab_Scene",
      "nodes": [
        0
      ]
    }
  ],
  "textures": [
    {
      "sampler": 0,
      "source": 0
    },
    {
      "sampler": 0,
      "source": 1
    },
    {
      "sampler": 0,
      "source": 2
    },
    {
      "sampler": 0,
      "source": 3
    }
  ]
}
