{
  "accessors": [
    {
      "bufferView": 2,
      "componentType": 5126,
      "count": 1075,
      "max": [
        1.0602120161056519,
        1.3499159812927246,
        -0.10365399718284607
      ],
      "min": [
        -0.9817739725112915,
        -1.3499159812927246,
        -0.1341869980096817
      ],
      "type": "VEC3"
    },
    {
      "bufferView": 2,
      "byteOffset": 12900,
      "componentType": 5126,
      "count": 1075,
      "max": [
        0.9999680519104004,
        0.9999704360961914,
        0.9986923933029175
      ],
      "min": [
        0.0,
        -0.9999704360961914,
        -1.0
      ],
      "type": "VEC3"
    },
    {
      "bufferView": 3,
      "componentType": 5126,
      "count": 1075,
      "max": [
        1.0,
        0.7511377930641174,
        0.9999680519104004,
        1.0
      ],
      "min": [
        -0.5343414545059204,
        -1.0,
        -0.9578830599784851,
        1.0
      ],
      "type": "VEC4"
    },
    {
      "bufferView": 1,
      "componentType": 5126,
      "count": 1075,
      "max": [
        0.9968379735946655,
        0.9970849752426147
      ],
      "min": [
        0.0018159999744966626,
        0.0018159999744966626
      ],
      "type": "VEC2"
    },
    {
      "bufferView": 0,
      "componentType": 5125,
      "count": 5472,
      "type": "SCALAR"
    },
    {
      "bufferView": 2,
      "byteOffset": 25800,
      "componentType": 5126,
      "count": 577,
      "max": [
        1.0100359916687012,
        1.3063809871673584,
        0.10477399826049805
      ],
      "min": [
        -0.9792050123214722,
        -1.3063809871673584,
        -0.10477399826049805
      ],
      "type": "VEC3"
    },
    {
      "bufferView": 2,
      "byteOffset": 32724,
      "componentType": 5126,
      "count": 577,
      "max": [
        1.0,
        1.0,
        0.9921746850013733
      ],
      "min": [
        0.0,
        -1.0,
        -0.9923954010009766
      ],
      "type": "VEC3"
    },
    {
      "bufferView": 3,
      "byteOffset": 17200,
      "componentType": 5126,
      "count": 577,
      "max": [
        1.0,
        1.0,
        0.6459419131278992,
        1.0
      ],
      "min": [
        -1.0,
        -0.7998047471046448,
        -1.0,
        1.0
      ],
      "type": "VEC4"
    },
    {
      "bufferView": 1,
      "byteOffset": 8600,
      "componentType": 5126,
      "count": 577,
      "max": [
        0.9867500066757202,
        0.9903849959373474
      ],
      "min": [
        0.39872801303863525,
        0.0617620013654232
      ],
      "type": "VEC2"
    },
    {
      "bufferView": 0,
      "byteOffset": 21888,
      "componentType": 5125,
      "count": 2592,
      "type": "SCALAR"
    },
    {
      "bufferView": 2,
      "byteOffset": 39648,
      "componentType": 5126,
      "count": 1655,
      "max": [
        -0.9777200222015381,
        1.3499159812927246,
        0.13951200246810913
      ],
      "min": [
        -1.0206489562988281,
        -1.3499159812927246,
        -0.1341869980096817
      ],
      "type": "VEC3"
    },
    {
      "bufferView": 2,
      "byteOffset": 59508,
      "componentType": 5126,
      "count": 1655,
      "max": [
        0.9947020411491394,
        0.9999998807907104,
        1.0
      ],
      "min": [
        -1.0,
        -0.9999998807907104,
        -1.0
      ],
      "type": "VEC3"
    },
    {
      "bufferView": 3,
      "byteOffset": 26432,
      "componentType": 5126,
      "count": 1655,
      "max": [
        1.0,
        0.83884596824646,
        1.0,
        1.0
      ],
      "min": [
        -1.0,
        -0.8421622514724731,
        -1.0,
        1.0
      ],
      "type": "VEC4"
    },
    {
      "bufferView": 1,
      "byteOffset": 13216,
      "componentType": 5126,
      "count": 1655,
      "max": [
        0.9964209794998169,
        0.9905149936676025
      ],
      "min": [
        0.0018159999744966626,
        0.0018159999744966626
      ],
      "type": "VEC2"
    },
    {
      "bufferView": 0,
      "byteOffset": 32256,
      "componentType": 5125,
      "count": 8544,
      "type": "SCALAR"
    },
    {
      "bufferView": 2,
      "byteOffset": 79368,
      "componentType": 5126,
      "count": 1071,
      "max": [
        1.0602120161056519,
        1.3499159812927246,
        0.13951200246810913
      ],
      "min": [
        -0.9817739725112915,
        -1.3499159812927246,
        0.10365399718284607
      ],
      "type": "VEC3"
    },
    {
      "bufferView": 2,
      "byteOffset": 92220,
      "componentType": 5126,
      "count": 1071,
      "max": [
        0.9999978542327881,
        1.0,
        1.0
      ],
      "min": [
        0.0,
        -1.0,
        -0.9993263483047485
      ],
      "type": "VEC3"
    },
    {
      "bufferView": 3,
      "byteOffset": 52912,
      "componentType": 5126,
      "count": 1071,
      "max": [
        0.9204721450805664,
        1.0,
        0.9117587208747864,
        1.0
      ],
      "min": [
        -1.0,
        -1.0,
        -0.911769449710846,
        1.0
      ],
      "type": "VEC4"
    },
    {
      "bufferView": 1,
      "byteOffset": 26456,
      "componentType": 5126,
      "count": 1071,
      "max": [
        0.9971569776535034,
        0.9970930218696594
      ],
      "min": [
        0.0018159999744966626,
        0.0018159999744966626
      ],
      "type": "VEC2"
    },
    {
      "bufferView": 0,
      "byteOffset": 66432,
      "componentType": 5125,
      "count": 5472,
      "type": "SCALAR"
    }
  ],
  "asset": {
    "extras": {
      "author": "yimmyramiro (https://sketchfab.com/yimmyramiro)",
      "license": "CC-BY-4.0 (http://creativecommons.org/licenses/by/4.0/)",
      "source": "https://sketchfab.com/3d-models/libro-daf860020fdf4ed392f07933977ee89b",
      "title": "Libro"
    },
    "generator": "Sketchfab-12.68.0",
    "version": "2.0"
  },
  "bufferViews": [
    {
      "buffer": 0,
      "byteLength": 88320,
      "name": "floatBufferViews",
      "target": 34963
    },
    {
      "buffer": 0,
      "byteLength": 35024,
      "byteOffset": 88320,
      "byteStride": 8,
      "name": "floatBufferViews",
      "target": 34962
    },
    {
      "buffer": 0,
      "byteLength": 105072,
      "byteOffset": 123344,
      "byteStride": 12,
      "name": "floatBufferViews",
      "target": 34962
    },
    {
      "buffer": 0,
      "byteLength": 70048,
      "byteOffset": 228416,
      "byteStride": 16,
      "name": "floatBufferViews",
      "target": 34962
    }
  ],
  "buffers": [
    {
      "byteLength": 298464,
      "uri": "scene.bin"
    }
  ],
  "images": [
    {
      "uri": "textures/Atras_baseColor.png"
    },
    {
      "uri": "textures/Atras_metallicRoughness.png"
    },
    {
      "uri": "textures/Atras_normal.png"
    },
    {
      "uri": "textures/Hojas_baseColor.png"
    },
    {
      "uri": "textures/Hojas_metallicRoughness.png"
    },
    {
      "uri": "textures/Hojas_normal.png"
    },
    {
      "uri": "textures/Lomo_baseColor.png"
    },
    {
      "uri": "textures/Lomo_metallicRoughness.png"
    },
    {
      "uri": "textures/Lomo_normal.png"
    },
    {
      "uri": "textures/Portada_baseColor.png"
    },
    {
      "uri": "textures/Portada_metallicRoughness.png"
    },
    {
      "uri": "textures/Portada_normal.png"
    }
  ],
  "materials": [
    {
      "doubleSided": true,
      "name": "Atras",
      "normalTexture": {
        "index": 2
      },
      "occlusionTexture": {
        "index": 1
      },
      "pbrMetallicRoughness": {
        "baseColorTexture": {
          "index": 0
        },
        "metallicRoughnessTexture": {
          "index": 1
        }
      }
    },
    {
      "doubleSided": true,
      "name": "Hojas",
      "normalTexture": {
        "index": 5
      },
      "occlusionTexture": {
        "index": 4
      },
      "pbrMetallicRoughness": {
        "baseColorTexture": {
          "index": 3
        },
        "metallicRoughnessTexture": {
          "index": 4
        }
      }
    },
    {
      "doubleSided": true,
      "name": "Lomo",
      "normalTexture": {
        "index": 8
      },
      "occlusionTexture": {
        "index": 7
      },
      "pbrMetallicRoughness": {
        "baseColorTexture": {
          "index": 6
        },
        "metallicRoughnessTexture": {
          "index": 7
        }
      }
    },
    {
      "doubleSided": true,
      "name": "Portada",
      "normalTexture": {
        "index": 11
      },
      "occlusionTexture": {
        "index": 10
      },
      "pbrMetallicRoughness": {
        "baseColorTexture": {
          "index": 9
        },
        "metallicRoughnessTexture": {
          "index": 10
        }
      }
    }
  ],
  "meshes": [
    {
      "name": "Object_0",
      "primitives": [
        {
          "attributes": {
            "NORMAL": 1,
            "POSITION": 0,
            "TANGENT": 2,
            "TEXCOORD_0": 3
          },
          "indices": 4,
          "material": 0,
          "mode": 4
        }
      ]
    },
    {
      "name": "Object_1",
      "primitives": [
        {
          "attributes": {
            "NORMAL": 6,
            "POSITION": 5,
            "TANGENT": 7,
            "TEXCOORD_0": 8
          },
          "indices": 9,
          "material": 1,
          "mode": 4
        }
      ]
    },
    {
      "name": "Object_2",
      "primitives": [
        {
          "attributes": {
            "NORMAL": 11,
            "POSITION": 10,
            "TANGENT": 12,
            "TEXCOORD_0": 13
          },
          "indices": 14,
          "material": 2,
          "mode": 4
        }
      ]
    },
    {
      "name": "Object_3",
      "primitives": [
        {
          "attributes": {
            "NORMAL": 16,
            "POSITION": 15,
            "TANGENT": 17,
            "TEXCOORD_0": 18
          },
          "indices": 19,
          "material": 3,
          "mode": 4
        }
      ]
    }
  ],
  "nodes": [
    {
      "children": [
        1
      ],
      "matrix": [
        1.0,
        0.0,
        0.0,
        0.0,
        0.0,
        2.220446049250313e-16,
        -1.0,
        0.0,
        0.0,
        1.0,
        2.220446049250313e-16,
        0.0,
        0.0,
        0.0,
        0.0,
        1.0
      ],
      "name": "Sketchfab_model"
    },
    {
      "children": [
        2,
        3,
        4,
        5
      ],
      "name": "LibroText.obj.cleaner.materialmerger.gles"
    },
    {
      "mesh": 0,
      "name": "Object_2"
    },
    {
      "mesh": 1,
      "name": "Object_3"
    },
    {
      "mesh": 2,
      "name": "Object_4"
    },
    {
      "mesh": 3,
      "name": "Object_5"
    }
  ],
  "samplers": [
    {
      "magFilter": 9729,
      "minFilter": 9987,
      "wrapS": 10497,
      "wrapT": 10497
    }
  ],
  "scene": 0,
  "scenes": [
    {
      "name": "Sketchfab_Scene",
      "nodes": [
        0
      ]
    }
  ],
  "textures": [
    {
      "sampler": 0,
      "source": 0
    },
    {
      "sampler": 0,
      "source": 1
    },
    {
      "sampler": 0,
      "source": 2
    },
    {
      "sampler": 0,
      "source": 3
    },
    {
      "sampler": 0,
      "source": 4
    },
    {
      "sampler": 0,
      "source": 5
    },
    {
      "sampler": 0,
      "source": 6
    },
    {
      "sampler": 0,
      "source": 7
    },
    {
      "sampler": 0,
      "source": 8
    },
    {
      "sampler": 0,
      "source": 9
    },
    {
      "sampler": 0,
      "source": 10
    },
    {
      "sampler": 0,
      "source": 11
    }
  ]
}
