{
  "accessors": [
    {
      "bufferView": 2,
      "componentType": 5126,
      "count": 1068,
      "max": [
        0.22861258685588837,
        0.32988491654396057,
        0.4228024184703827
      ],
      "min": [
        -0.22357138991355896,
        -0.33067381381988525,
        -0.42253386974334717
      ],
      "type": "VEC3"
    },
    {
      "bufferView": 2,
      "byteOffset": 12816,
      "componentType": 5126,
      "count": 1068,
      "max": [
        0.9973456859588623,
        0.9997599720954895,
        0.9974490404129028
      ],
      "min": [
        -0.9991681575775146,
        -0.9996542930603027,
        -0.9960094690322876
      ],
      "type": "VEC3"
    },
    {
      "bufferView": 1,
      "componentType": 5126,
      "count": 1068,
      "max": [
        0.991400420665741,
        0.9620562791824341
      ],
      "min": [
        0.002868637442588806,
        0.00286865234375
      ],
      "type": "VEC2"
    },
    {
      "bufferView": 0,
      "componentType": 5125,
      "count": 4062,
      "type": "SCALAR"
    }
  ],
  "asset": {
    "extras": {
      "author": "klrxyz (https://sketchfab.com/klrxyz)",
      "license": "CC-BY-4.0 (http://creativecommons.org/licenses/by/4.0/)",
      "source": "https://sketchfab.com/3d-models/cute-angel-cat-white-winged-bird-holding-a-red-6ea2599bc1a04289899146f9e1d35f6e",
      "title": "Cute Angel Cat - White winged bird holding a red"
    },
    "generator": "Sketchfab-16.7.0",
    "version": "2.0"
  },
  "bufferViews": [
    {
      "buffer": 0,
      "byteLength": 16248,
      "name": "floatBufferViews",
      "target": 34963
    },
    {
      "buffer": 0,
      "byteLength": 8544,
      "byteOffset": 16248,
      "byteStride": 8,
      "name": "floatBufferViews",
      "target": 34962
    },
    {
      "buffer": 0,
      "byteLength": 25632,
      "byteOffset": 24792,
      "byteStride": 12,
      "name": "floatBufferViews",
      "target": 34962
    }
  ],
  "buffers": [
    {
      "byteLength": 50424,
      "uri": "scene.bin"
    }
  ],
  "images": [
    {
      "uri": "textures/SimplygonCastMaterial_baseColor.png"
    }
  ],
  "materials": [
    {
      "doubleSided": true,
      "name": "SimplygonCastMaterial",
      "pbrMetallicRoughness": {
        "baseColorTexture": {
          "index": 0
        },
        "metallicFactor": 0.0
      }
    }
  ],
  "meshes": [
    {
      "name": "ProcessedMeshNode_LOD1_SimplygonCastMaterial_0",
      "primitives": [
        {
          "attributes": {
            "NORMAL": 1,
            "POSITION": 0,
            "TEXCOORD_0": 2
          },
          "indices": 3,
          "material": 0,
          "mode": 4
        }
      ]
    }
  ],
  "nodes": [
    {
      "children": [
        1
      ],
      "matrix": [
        1.0,
        0.0,
        0.0,
        0.0,
        0.0,
        2.220446049250313e-16,
        -1.0,
        0.0,
        0.0,
        1.0,
        2.220446049250313e-16,
        0.0,
        0.0,
        0.0,
        0.0,
        1.0
      ],
      "name": "Sketchfab_model"
    },
    {
      "children": [
        2
      ],
      "matrix": [
        0.009999999776482582,
        0.0,
        0.0,
        0.0,
        0.0,
        0.0,
        0.009999999776482582,
        0.0,
        0.0,
        -0.009999999776482582,
        0.0,
        0.0,
        0.0,
        0.0,
        0.0,
        1.0
      ],
      "name": "final.fbx"
    },
    {
      "children": [
        3
      ],
      "name": "RootNode"
    },
    {
      "children": [
        4
      ],
      "matrix": [
        4.3711386728180365e-06,
        1.1102229399218618e-14,
        99.99999237060538,
        0.0,
        99.99999237060528,
        -4.3711386728180365e-06,
        -4.371138678369152e-06,
        0.0,
        4.371139011860592e-06,
        99.99999999999991,
        -1.9984014443252818e-13,
        0.0,
        0.0,
        0.0,
        0.0,
        1.0
      ],
      "name": "ProcessedMeshNode_LOD1"
    },
    {
      "mesh": 0,
      "name": "ProcessedMeshNode_LOD1_SimplygonCastMaterial_0"
    }
  ],
  "samplers": [
    {
      "magFilter": 9729,
      "minFilter": 9987,
      "wrapS": 10497,
      "wrapT": 10497
    }
  ],
  "scene": 0,
  "scenes": [
    {
      "name": "Sketchfab_Scene",
      "nodes": [
        0
      ]
    }
  ],
  "textures": [
    {
      "sampler": 0,
      "source": 0
    }
  ]
}
